PathFileType   4   (X/Y/Z)																																																																																																																							
DataRate  CameraRate  NumFrames  NumMarkers  Units  OrigDataRate  OrigDataStartFrame  OrigNumFrames  																																																																																																																							
  120.0      120.0        6         39         mm      120.0          41        109																																																																																																																							
Frame#      Time	midhip		hip_r		hip_l		knee_r		knee_l		ankle_r		ankle_l		midasis		asis_r		asis_l		psis_r		psis_l		epicondLat_r		epicondLat_l		epicondMed_r		epicondMed_l		malleolusLat_r		malleolusLat_l		malleolusMedv_r		malleolusMedv_l		heel_r		heel_l		sternalnotch		xyphoidprocess		neck		subclavicle_r		subclavicle_l		toe_r		toe_l		thighwand_r		thighwand_l		upperleg1_r		upperleg1_l		upperleg2_r		upperleg2_l		shankwand_r		shankwand_l		lowerleg1_r		lowerleg1_l		
              X1          Y1          Z1          X2          Y2          Z2          X3          Y3          Z3          X4          Y4          Z4          X5          Y5          Z5          X6          Y6          Z6          X7          Y7          Z7          X8          Y8          Z8          X9          Y9          Z9          X10          Y10          Z10          X11          Y11          Z11          X12          Y12          Z12          X13          Y13          Z13          X14          Y14          Z14          X15          Y15          Z15          X16          Y16          Z16          X17          Y17          Z17          X18          Y18          Z18          X19          Y19          Z19          X20          Y20          Z20          X21          Y21          Z21          X22          Y22          Z22          X23          Y23          Z23          X24          Y24          Z24          X25          Y25          Z25          X26          Y26          Z26          X27          Y27          Z27          X28          Y28          Z28          X29          Y29          Z29          X30          Y30          Z30          X31          Y31          Z31          X32          Y32          Z32          X33          Y33          Z33          X34          Y34          Z34          X35          Y35          Z35          X36          Y36          Z36          X37          Y37          Z37          X38          Y38          Z38          X39          Y39          Z39          																																																																																																																							

	41	1.35833	1471.659	881.812	-253.271	1468.035	879.958	-178.167	1475.284	883.665	-328.376	1443.561	469.978	-132.354	1432.367	461.168	-355.405	1405.771	69.638	-128.579	1382.922	71.223	-365.061	1565.536	960.307	-246.804	1559.801	957.374	-127.953	1571.272	963.24	-365.656	1380.496	1017.857	-220.942	1388.544	1016.438	-306.643	1452.706	475.856	-74.873	1440.389	464.023	-412.776	1427.688	477.184	-185.149	1427.869	465.283	-301.577	1391.187	71.366	-91.372	1365.184	74.329	-399.655	1415.656	83.744	-158.167	1391.288	83.861	-337.261	1342.803	42.557	-143.898	1317.603	42.968	-352.157	1487.441	1370.242	-234.549	1570.022	1206.741	-244.872	1374.076	1436.317	-239.718	1496.847	1359.231	-182.626	1510.593	1365.171	-289.047	1525.629	39.542	-99.524	1500.599	41.176	-401.824	1506.183	591.334	-9.562	1597.161	553.25	-342.198	1522.631	651.269	-83.277	1535.132	618.789	-381.701	1513.814	564.004	-98.126	1508.337	535.261	-386.03	1418.173	204.977	-5.645	1406.271	211.909	-479.539	1406.182	171.696	-78.205	1385.814	173.702	-410.525
	42	1.36667	1471.566	881.812	-253.352	1467.955	879.951	-178.247	1475.177	883.673	-328.457	1443.549	469.995	-132.389	1432.389	461.106	-355.464	1405.765	69.632	-128.601	1382.898	71.241	-365.065	1565.447	960.303	-246.893	1559.732	957.357	-128.026	1571.163	963.248	-365.76	1380.569	1017.799	-221	1388.714	1016.372	-306.617	1452.684	475.881	-74.907	1440.435	463.958	-412.832	1427.844	477.123	-185.368	1427.964	465.435	-301.291	1391.175	71.361	-91.397	1365.174	74.343	-399.667	1415.617	83.757	-158.163	1391.297	83.696	-337.307	1342.791	42.544	-143.875	1317.578	42.991	-352.157	1487.299	1370.196	-234.573	1569.753	1206.632	-244.909	1374.033	1436.349	-239.797	1496.584	1359.117	-182.644	1510.562	1365.166	-289.026	1525.62	39.546	-99.521	1500.584	41.153	-401.795	1506.178	591.341	-9.568	1597.164	553.233	-342.187	1522.624	651.299	-83.306	1535.267	618.691	-381.609	1513.856	563.842	-98.256	1508.455	535.385	-385.853	1418.189	205.006	-5.674	1406.281	211.901	-479.573	1406.277	171.651	-78.175	1385.743	173.468	-410.445
	43	1.375	1471.496	881.812	-253.399	1467.903	879.947	-178.294	1475.089	883.677	-328.505	1443.535	470.016	-132.445	1432.442	461.025	-355.516	1405.766	69.629	-128.606	1382.87	71.257	-365.073	1565.383	960.298	-246.96	1559.696	957.346	-128.078	1571.07	963.249	-365.841	1380.672	1017.743	-221.077	1388.894	1016.309	-306.614	1452.659	475.903	-74.961	1440.494	463.879	-412.884	1427.805	477.158	-185.486	1427.994	465.404	-301.29	1391.169	71.363	-91.405	1365.148	74.36	-399.676	1415.786	83.772	-158.11	1391.331	83.581	-337.305	1342.776	42.541	-143.866	1317.562	43.018	-352.153	1487.136	1370.156	-234.623	1569.701	1206.639	-244.801	1373.794	1436.238	-239.753	1496.275	1359.055	-182.658	1510.562	1365.166	-289.026	1525.644	39.53	-99.493	1500.57	41.136	-401.772	1506.193	591.35	-9.579	1597.167	553.21	-342.167	1522.624	651.299	-83.306	1535.313	618.558	-381.55	1513.837	563.759	-98.336	1508.546	535.464	-385.813	1418.196	205.026	-5.706	1406.263	211.886	-479.587	1406.311	171.744	-78.231	1385.529	173.48	-410.498
	44	1.38333	1471.482	881.811	-253.429	1467.905	879.946	-178.323	1475.058	883.676	-328.536	1443.522	470.045	-132.51	1432.549	460.952	-355.557	1405.775	69.634	-128.604	1382.851	71.273	-365.083	1565.368	960.299	-247.009	1559.706	957.346	-128.103	1571.03	963.252	-365.915	1380.782	1017.699	-221.164	1389.081	1016.247	-306.615	1452.635	475.928	-75.025	1440.58	463.812	-412.927	1427.811	477.177	-185.589	1427.919	465.534	-301.291	1391.172	71.374	-91.405	1365.117	74.38	-399.679	1415.983	83.833	-158.045	1391.198	83.625	-337.273	1342.757	42.547	-143.869	1317.548	43.024	-352.137	1487.057	1370.217	-234.824	1569.772	1206.758	-244.711	1373.584	1436.195	-239.767	1496.084	1359.154	-182.904	1510.612	1365.213	-289.092	1525.69	39.489	-99.461	1500.563	41.133	-401.761	1506.209	591.355	-9.596	1597.169	553.191	-342.142	1522.62	651.295	-83.328	1535.403	618.611	-381.55	1513.84	563.728	-98.408	1508.546	535.475	-385.807	1418.197	205.034	-5.74	1406.236	211.877	-479.586	1406.319	171.818	-78.378	1385.463	173.606	-410.664
	45	1.39167	1471.516	881.813	-253.449	1467.943	879.953	-178.342	1475.089	883.673	-328.556	1443.514	470.078	-132.582	1432.739	460.917	-355.587	1405.804	69.64	-128.595	1382.851	71.279	-365.094	1565.393	960.313	-247.039	1559.734	957.367	-128.094	1571.052	963.259	-365.983	1380.875	1017.665	-221.25	1389.249	1016.192	-306.615	1452.612	475.954	-75.093	1440.717	463.786	-412.964	1427.789	477.204	-185.676	1427.973	465.495	-301.477	1391.192	71.387	-91.4	1365.085	74.397	-399.672	1415.949	83.815	-158.07	1391.056	83.655	-337.197	1342.741	42.558	-143.88	1317.536	42.998	-352.114	1487.008	1370.281	-234.962	1569.716	1206.807	-244.655	1373.459	1436.278	-239.778	1495.973	1359.247	-183.092	1510.625	1365.242	-289.129	1525.737	39.435	-99.426	1500.555	41.138	-401.756	1506.217	591.35	-9.617	1597.164	553.176	-342.113	1522.611	651.286	-83.373	1535.493	618.73	-381.597	1513.833	563.731	-98.481	1508.643	535.391	-385.891	1418.188	205.035	-5.766	1406.212	211.863	-479.577	1406.158	171.811	-78.511	1385.507	173.698	-410.73
	46	1.4	1471.567	881.825	-253.473	1467.979	879.975	-178.367	1475.155	883.675	-328.579	1443.514	470.108	-132.656	1432.999	460.923	-355.607	1405.868	69.639	-128.573	1382.872	71.258	-365.1	1565.431	960.34	-247.054	1559.746	957.409	-128.068	1571.116	963.271	-366.04	1380.935	1017.653	-221.331	1389.383	1016.157	-306.614	1452.592	475.978	-75.163	1440.897	463.805	-412.995	1427.747	477.213	-185.635	1427.997	465.205	-301.812	1391.245	71.393	-91.383	1365.058	74.391	-399.652	1415.838	83.724	-158.167	1391.062	83.681	-337.129	1342.736	42.568	-143.893	1317.53	42.937	-352.09	1486.956	1370.235	-234.935	1569.604	1206.729	-244.612	1373.41	1436.282	-239.691	1495.854	1359.171	-183.029	1510.637	1365.214	-289.107	1525.768	39.388	-99.408	1500.537	41.145	-401.754	1506.223	591.341	-9.639	1597.154	553.157	-342.087	1522.607	651.282	-83.395	1535.428	618.733	-381.641	1513.822	563.775	-98.474	1508.673	535.222	-386.047	1418.167	205.031	-5.782	1406.197	211.847	-479.564	1405.888	171.782	-78.624	1385.628	173.769	-410.692
